<mxfile host="Electron" modified="2024-05-14T14:09:07.377Z" agent="Mozilla/5.0 (Windows NT 10.0; Win64; x64) AppleWebKit/537.36 (KHTML, like Gecko) draw.io/24.4.0 Chrome/120.0.6099.109 Electron/28.1.0 Safari/537.36" etag="x0tIa3D3PWtMTIME5adt" version="24.4.0" type="device">
  <diagram name="Page-1" id="lqil6zeCuKkwjWcCTeRo">
    <mxGraphModel dx="1827" dy="574" grid="1" gridSize="10" guides="1" tooltips="1" connect="1" arrows="1" fold="1" page="1" pageScale="1" pageWidth="850" pageHeight="1100" math="0" shadow="0">
      <root>
        <mxCell id="0" />
        <mxCell id="1" parent="0" />
        <mxCell id="LGZqytboxsc6lPR2mBcq-13" value="SD&lt;div&gt;Kalender und Noten&lt;/div&gt;&lt;div&gt;eintragen/lesen&lt;/div&gt;" style="shape=note2;boundedLbl=1;whiteSpace=wrap;html=1;size=4;verticalAlign=top;align=center;" vertex="1" parent="1">
          <mxGeometry x="-172.5" width="92.5" height="70" as="geometry" />
        </mxCell>
        <mxCell id="LGZqytboxsc6lPR2mBcq-44" value="&lt;u&gt;maxMustermann: Pupil&lt;/u&gt;" style="shape=umlLifeline;perimeter=lifelinePerimeter;whiteSpace=wrap;html=1;container=1;dropTarget=0;collapsible=0;recursiveResize=0;outlineConnect=0;portConstraint=eastwest;newEdgeStyle={&quot;edgeStyle&quot;:&quot;elbowEdgeStyle&quot;,&quot;elbow&quot;:&quot;vertical&quot;,&quot;curved&quot;:0,&quot;rounded&quot;:0};" vertex="1" parent="1">
          <mxGeometry x="-650" y="90" width="100" height="560" as="geometry" />
        </mxCell>
        <mxCell id="LGZqytboxsc6lPR2mBcq-45" value="" style="html=1;points=[[0,0,0,0,5],[0,1,0,0,-5],[1,0,0,0,5],[1,1,0,0,-5]];perimeter=orthogonalPerimeter;outlineConnect=0;targetShapes=umlLifeline;portConstraint=eastwest;newEdgeStyle={&quot;curved&quot;:0,&quot;rounded&quot;:0};" vertex="1" parent="LGZqytboxsc6lPR2mBcq-44">
          <mxGeometry x="45" y="200" width="10" height="340" as="geometry" />
        </mxCell>
        <mxCell id="LGZqytboxsc6lPR2mBcq-48" value="&lt;u&gt;5b: Class&lt;/u&gt;" style="shape=umlLifeline;perimeter=lifelinePerimeter;whiteSpace=wrap;html=1;container=1;dropTarget=0;collapsible=0;recursiveResize=0;outlineConnect=0;portConstraint=eastwest;newEdgeStyle={&quot;edgeStyle&quot;:&quot;elbowEdgeStyle&quot;,&quot;elbow&quot;:&quot;vertical&quot;,&quot;curved&quot;:0,&quot;rounded&quot;:0};" vertex="1" parent="1">
          <mxGeometry x="-470" y="90" width="100" height="560" as="geometry" />
        </mxCell>
        <mxCell id="LGZqytboxsc6lPR2mBcq-50" value="" style="html=1;points=[[0,0,0,0,5],[0,1,0,0,-5],[1,0,0,0,5],[1,1,0,0,-5]];perimeter=orthogonalPerimeter;outlineConnect=0;targetShapes=umlLifeline;portConstraint=eastwest;newEdgeStyle={&quot;curved&quot;:0,&quot;rounded&quot;:0};" vertex="1" parent="LGZqytboxsc6lPR2mBcq-48">
          <mxGeometry x="45" y="60" width="10" height="220" as="geometry" />
        </mxCell>
        <mxCell id="LGZqytboxsc6lPR2mBcq-55" style="edgeStyle=orthogonalEdgeStyle;rounded=0;orthogonalLoop=1;jettySize=auto;html=1;curved=0;endArrow=block;endFill=1;exitX=1;exitY=0;exitDx=0;exitDy=5;exitPerimeter=0;" edge="1" parent="1" source="LGZqytboxsc6lPR2mBcq-45" target="LGZqytboxsc6lPR2mBcq-50">
          <mxGeometry relative="1" as="geometry">
            <Array as="points">
              <mxPoint x="-500" y="295" />
              <mxPoint x="-500" y="295" />
            </Array>
            <mxPoint x="-430" y="395" as="targetPoint" />
          </mxGeometry>
        </mxCell>
        <mxCell id="LGZqytboxsc6lPR2mBcq-56" value="getCalendar()" style="edgeLabel;html=1;align=center;verticalAlign=middle;resizable=0;points=[];" vertex="1" connectable="0" parent="LGZqytboxsc6lPR2mBcq-55">
          <mxGeometry x="-0.1477" y="-2" relative="1" as="geometry">
            <mxPoint x="10" y="-2" as="offset" />
          </mxGeometry>
        </mxCell>
        <mxCell id="LGZqytboxsc6lPR2mBcq-57" style="edgeStyle=orthogonalEdgeStyle;rounded=0;orthogonalLoop=1;jettySize=auto;html=1;curved=0;dashed=1;endArrow=block;endFill=1;exitX=0;exitY=1;exitDx=0;exitDy=-5;exitPerimeter=0;" edge="1" parent="1" source="LGZqytboxsc6lPR2mBcq-50" target="LGZqytboxsc6lPR2mBcq-45">
          <mxGeometry relative="1" as="geometry">
            <Array as="points">
              <mxPoint x="-425" y="350" />
            </Array>
          </mxGeometry>
        </mxCell>
        <mxCell id="LGZqytboxsc6lPR2mBcq-58" value="return this.calendar" style="edgeLabel;html=1;align=center;verticalAlign=middle;resizable=0;points=[];" vertex="1" connectable="0" parent="LGZqytboxsc6lPR2mBcq-57">
          <mxGeometry x="0.097" relative="1" as="geometry">
            <mxPoint x="-8" as="offset" />
          </mxGeometry>
        </mxCell>
        <mxCell id="LGZqytboxsc6lPR2mBcq-59" value="&lt;u&gt;calendar: Calendar&lt;/u&gt;" style="shape=umlLifeline;perimeter=lifelinePerimeter;whiteSpace=wrap;html=1;container=1;dropTarget=0;collapsible=0;recursiveResize=0;outlineConnect=0;portConstraint=eastwest;newEdgeStyle={&quot;edgeStyle&quot;:&quot;elbowEdgeStyle&quot;,&quot;elbow&quot;:&quot;vertical&quot;,&quot;curved&quot;:0,&quot;rounded&quot;:0};" vertex="1" parent="1">
          <mxGeometry x="-310" y="90" width="100" height="560" as="geometry" />
        </mxCell>
        <mxCell id="LGZqytboxsc6lPR2mBcq-60" value="" style="html=1;points=[[0,0,0,0,5],[0,1,0,0,-5],[1,0,0,0,5],[1,1,0,0,-5]];perimeter=orthogonalPerimeter;outlineConnect=0;targetShapes=umlLifeline;portConstraint=eastwest;newEdgeStyle={&quot;curved&quot;:0,&quot;rounded&quot;:0};" vertex="1" parent="LGZqytboxsc6lPR2mBcq-59">
          <mxGeometry x="45" y="60" width="10" height="330" as="geometry" />
        </mxCell>
        <mxCell id="LGZqytboxsc6lPR2mBcq-64" style="edgeStyle=orthogonalEdgeStyle;rounded=0;orthogonalLoop=1;jettySize=auto;html=1;curved=0;endArrow=block;endFill=1;" edge="1" parent="1" source="LGZqytboxsc6lPR2mBcq-45" target="LGZqytboxsc6lPR2mBcq-60">
          <mxGeometry relative="1" as="geometry">
            <Array as="points">
              <mxPoint x="-420" y="410" />
              <mxPoint x="-420" y="410" />
            </Array>
          </mxGeometry>
        </mxCell>
        <mxCell id="LGZqytboxsc6lPR2mBcq-65" value="getEvents()" style="edgeLabel;html=1;align=center;verticalAlign=middle;resizable=0;points=[];" vertex="1" connectable="0" parent="LGZqytboxsc6lPR2mBcq-64">
          <mxGeometry x="-0.3046" y="2" relative="1" as="geometry">
            <mxPoint x="32" y="2" as="offset" />
          </mxGeometry>
        </mxCell>
        <mxCell id="LGZqytboxsc6lPR2mBcq-66" value="&lt;u&gt;utaPriss: Teacher&lt;/u&gt;" style="shape=umlLifeline;perimeter=lifelinePerimeter;whiteSpace=wrap;html=1;container=1;dropTarget=0;collapsible=0;recursiveResize=0;outlineConnect=0;portConstraint=eastwest;newEdgeStyle={&quot;edgeStyle&quot;:&quot;elbowEdgeStyle&quot;,&quot;elbow&quot;:&quot;vertical&quot;,&quot;curved&quot;:0,&quot;rounded&quot;:0};" vertex="1" parent="1">
          <mxGeometry x="-850" y="90" width="100" height="560" as="geometry" />
        </mxCell>
        <mxCell id="LGZqytboxsc6lPR2mBcq-67" value="" style="html=1;points=[[0,0,0,0,5],[0,1,0,0,-5],[1,0,0,0,5],[1,1,0,0,-5]];perimeter=orthogonalPerimeter;outlineConnect=0;targetShapes=umlLifeline;portConstraint=eastwest;newEdgeStyle={&quot;curved&quot;:0,&quot;rounded&quot;:0};" vertex="1" parent="LGZqytboxsc6lPR2mBcq-66">
          <mxGeometry x="45" y="60" width="10" height="100" as="geometry" />
        </mxCell>
        <mxCell id="LGZqytboxsc6lPR2mBcq-19" value="" style="html=1;points=[[0,0,0,0,5],[0,1,0,0,-5],[1,0,0,0,5],[1,1,0,0,-5]];perimeter=orthogonalPerimeter;outlineConnect=0;targetShapes=umlLifeline;portConstraint=eastwest;newEdgeStyle={&quot;curved&quot;:0,&quot;rounded&quot;:0};" vertex="1" parent="LGZqytboxsc6lPR2mBcq-66">
          <mxGeometry x="45" y="395" width="10" height="145" as="geometry" />
        </mxCell>
        <mxCell id="LGZqytboxsc6lPR2mBcq-69" style="edgeStyle=orthogonalEdgeStyle;rounded=0;orthogonalLoop=1;jettySize=auto;html=1;curved=0;entryX=0;entryY=0;entryDx=0;entryDy=5;entryPerimeter=0;endArrow=block;endFill=1;" edge="1" parent="1" source="LGZqytboxsc6lPR2mBcq-67" target="LGZqytboxsc6lPR2mBcq-50">
          <mxGeometry relative="1" as="geometry">
            <Array as="points">
              <mxPoint x="-640" y="155" />
              <mxPoint x="-640" y="155" />
            </Array>
          </mxGeometry>
        </mxCell>
        <mxCell id="LGZqytboxsc6lPR2mBcq-70" value="changeCalendar(5b)" style="edgeLabel;html=1;align=center;verticalAlign=middle;resizable=0;points=[];" vertex="1" connectable="0" parent="LGZqytboxsc6lPR2mBcq-69">
          <mxGeometry x="-0.0714" relative="1" as="geometry">
            <mxPoint as="offset" />
          </mxGeometry>
        </mxCell>
        <mxCell id="LGZqytboxsc6lPR2mBcq-71" style="edgeStyle=orthogonalEdgeStyle;rounded=0;orthogonalLoop=1;jettySize=auto;html=1;curved=0;endArrow=block;endFill=1;" edge="1" parent="1" source="LGZqytboxsc6lPR2mBcq-50" target="LGZqytboxsc6lPR2mBcq-59">
          <mxGeometry relative="1" as="geometry">
            <Array as="points">
              <mxPoint x="-360" y="170" />
              <mxPoint x="-360" y="170" />
            </Array>
          </mxGeometry>
        </mxCell>
        <mxCell id="LGZqytboxsc6lPR2mBcq-72" value="this.calendar&lt;div&gt;&lt;span style=&quot;white-space: pre;&quot;&gt;&#x9;&lt;/span&gt;.addEvent(newEvent)&lt;/div&gt;" style="edgeLabel;html=1;align=center;verticalAlign=middle;resizable=0;points=[];" vertex="1" connectable="0" parent="LGZqytboxsc6lPR2mBcq-71">
          <mxGeometry x="-0.4644" y="3" relative="1" as="geometry">
            <mxPoint x="34" y="1" as="offset" />
          </mxGeometry>
        </mxCell>
        <mxCell id="LGZqytboxsc6lPR2mBcq-73" style="edgeStyle=orthogonalEdgeStyle;rounded=0;orthogonalLoop=1;jettySize=auto;html=1;curved=0;endArrow=block;endFill=1;dashed=1;dashPattern=12 12;" edge="1" parent="1" source="LGZqytboxsc6lPR2mBcq-60" target="LGZqytboxsc6lPR2mBcq-50">
          <mxGeometry relative="1" as="geometry">
            <Array as="points">
              <mxPoint x="-290" y="200" />
              <mxPoint x="-290" y="200" />
            </Array>
          </mxGeometry>
        </mxCell>
        <mxCell id="LGZqytboxsc6lPR2mBcq-76" value="return true" style="edgeLabel;html=1;align=center;verticalAlign=middle;resizable=0;points=[];" vertex="1" connectable="0" parent="LGZqytboxsc6lPR2mBcq-73">
          <mxGeometry x="0.2252" y="3" relative="1" as="geometry">
            <mxPoint x="12" y="-3" as="offset" />
          </mxGeometry>
        </mxCell>
        <mxCell id="LGZqytboxsc6lPR2mBcq-74" value="..." style="text;html=1;align=center;verticalAlign=middle;resizable=0;points=[];autosize=1;strokeColor=none;fillColor=none;" vertex="1" parent="1">
          <mxGeometry x="-401" y="105" width="30" height="30" as="geometry" />
        </mxCell>
        <mxCell id="LGZqytboxsc6lPR2mBcq-77" style="edgeStyle=orthogonalEdgeStyle;rounded=0;orthogonalLoop=1;jettySize=auto;html=1;curved=0;endArrow=block;endFill=1;dashed=1;entryX=1;entryY=1;entryDx=0;entryDy=-5;entryPerimeter=0;dashPattern=12 12;" edge="1" parent="1" source="LGZqytboxsc6lPR2mBcq-50" target="LGZqytboxsc6lPR2mBcq-67">
          <mxGeometry relative="1" as="geometry">
            <Array as="points">
              <mxPoint x="-630" y="245" />
              <mxPoint x="-630" y="245" />
            </Array>
          </mxGeometry>
        </mxCell>
        <mxCell id="LGZqytboxsc6lPR2mBcq-78" value="return true" style="edgeLabel;html=1;align=center;verticalAlign=middle;resizable=0;points=[];" vertex="1" connectable="0" parent="LGZqytboxsc6lPR2mBcq-77">
          <mxGeometry x="-0.005" y="1" relative="1" as="geometry">
            <mxPoint x="19" as="offset" />
          </mxGeometry>
        </mxCell>
        <mxCell id="LGZqytboxsc6lPR2mBcq-79" style="edgeStyle=orthogonalEdgeStyle;rounded=0;orthogonalLoop=1;jettySize=auto;html=1;curved=0;endArrow=block;endFill=1;dashed=1;dashPattern=12 12;" edge="1" parent="1" source="LGZqytboxsc6lPR2mBcq-60" target="LGZqytboxsc6lPR2mBcq-45">
          <mxGeometry relative="1" as="geometry">
            <mxPoint x="-580" y="450" as="targetPoint" />
            <Array as="points">
              <mxPoint x="-430" y="450" />
              <mxPoint x="-430" y="450" />
            </Array>
          </mxGeometry>
        </mxCell>
        <mxCell id="LGZqytboxsc6lPR2mBcq-80" value="return this.events" style="edgeLabel;html=1;align=center;verticalAlign=middle;resizable=0;points=[];" vertex="1" connectable="0" parent="LGZqytboxsc6lPR2mBcq-79">
          <mxGeometry x="-0.0897" y="-1" relative="1" as="geometry">
            <mxPoint x="-65" as="offset" />
          </mxGeometry>
        </mxCell>
        <mxCell id="LGZqytboxsc6lPR2mBcq-22" style="edgeStyle=orthogonalEdgeStyle;rounded=0;orthogonalLoop=1;jettySize=auto;html=1;curved=0;endArrow=block;endFill=1;" edge="1" parent="1" source="LGZqytboxsc6lPR2mBcq-19" target="LGZqytboxsc6lPR2mBcq-45">
          <mxGeometry relative="1" as="geometry">
            <mxPoint x="-280" y="680" as="targetPoint" />
            <Array as="points">
              <mxPoint x="-710" y="500" />
              <mxPoint x="-710" y="500" />
            </Array>
          </mxGeometry>
        </mxCell>
        <mxCell id="LGZqytboxsc6lPR2mBcq-23" value="changeGrade(maxMustermann,&lt;div&gt;6, Subject.German)&lt;/div&gt;" style="edgeLabel;html=1;align=center;verticalAlign=middle;resizable=0;points=[];" vertex="1" connectable="0" parent="LGZqytboxsc6lPR2mBcq-22">
          <mxGeometry x="-0.4837" relative="1" as="geometry">
            <mxPoint x="46" as="offset" />
          </mxGeometry>
        </mxCell>
        <mxCell id="LGZqytboxsc6lPR2mBcq-81" value="&lt;u&gt;grade: Grade&lt;/u&gt;" style="shape=umlLifeline;perimeter=lifelinePerimeter;whiteSpace=wrap;html=1;container=1;dropTarget=0;collapsible=0;recursiveResize=0;outlineConnect=0;portConstraint=eastwest;newEdgeStyle={&quot;edgeStyle&quot;:&quot;elbowEdgeStyle&quot;,&quot;elbow&quot;:&quot;vertical&quot;,&quot;curved&quot;:0,&quot;rounded&quot;:0};" vertex="1" parent="1">
          <mxGeometry x="-180" y="90" width="100" height="560" as="geometry" />
        </mxCell>
        <mxCell id="LGZqytboxsc6lPR2mBcq-82" value="" style="html=1;points=[[0,0,0,0,5],[0,1,0,0,-5],[1,0,0,0,5],[1,1,0,0,-5]];perimeter=orthogonalPerimeter;outlineConnect=0;targetShapes=umlLifeline;portConstraint=eastwest;newEdgeStyle={&quot;curved&quot;:0,&quot;rounded&quot;:0};" vertex="1" parent="LGZqytboxsc6lPR2mBcq-81">
          <mxGeometry x="45" y="400" width="10" height="150" as="geometry" />
        </mxCell>
        <mxCell id="LGZqytboxsc6lPR2mBcq-88" style="edgeStyle=orthogonalEdgeStyle;rounded=0;orthogonalLoop=1;jettySize=auto;html=1;curved=0;endArrow=block;endFill=1;" edge="1" parent="1" source="LGZqytboxsc6lPR2mBcq-45" target="LGZqytboxsc6lPR2mBcq-82">
          <mxGeometry relative="1" as="geometry">
            <Array as="points">
              <mxPoint x="-370" y="510" />
              <mxPoint x="-370" y="510" />
            </Array>
          </mxGeometry>
        </mxCell>
        <mxCell id="LGZqytboxsc6lPR2mBcq-89" value="setValue(6)" style="edgeLabel;html=1;align=center;verticalAlign=middle;resizable=0;points=[];" vertex="1" connectable="0" parent="LGZqytboxsc6lPR2mBcq-88">
          <mxGeometry x="-0.1723" y="-1" relative="1" as="geometry">
            <mxPoint x="16" y="-1" as="offset" />
          </mxGeometry>
        </mxCell>
        <mxCell id="LGZqytboxsc6lPR2mBcq-90" style="edgeStyle=orthogonalEdgeStyle;rounded=0;orthogonalLoop=1;jettySize=auto;html=1;curved=0;dashed=1;endArrow=block;endFill=1;dashPattern=12 12;" edge="1" parent="1" source="LGZqytboxsc6lPR2mBcq-82" target="LGZqytboxsc6lPR2mBcq-45">
          <mxGeometry relative="1" as="geometry">
            <Array as="points">
              <mxPoint x="-360" y="590" />
              <mxPoint x="-360" y="590" />
            </Array>
          </mxGeometry>
        </mxCell>
        <mxCell id="LGZqytboxsc6lPR2mBcq-91" value="return true" style="edgeLabel;html=1;align=center;verticalAlign=middle;resizable=0;points=[];" vertex="1" connectable="0" parent="LGZqytboxsc6lPR2mBcq-90">
          <mxGeometry x="-0.1083" y="2" relative="1" as="geometry">
            <mxPoint x="-59" y="-2" as="offset" />
          </mxGeometry>
        </mxCell>
        <mxCell id="LGZqytboxsc6lPR2mBcq-92" style="edgeStyle=orthogonalEdgeStyle;rounded=0;orthogonalLoop=1;jettySize=auto;html=1;curved=0;endArrow=block;endFill=1;dashed=1;dashPattern=12 12;" edge="1" parent="1" source="LGZqytboxsc6lPR2mBcq-45" target="LGZqytboxsc6lPR2mBcq-19">
          <mxGeometry relative="1" as="geometry">
            <mxPoint x="-740" y="730" as="targetPoint" />
            <Array as="points">
              <mxPoint x="-690" y="610" />
              <mxPoint x="-690" y="610" />
            </Array>
          </mxGeometry>
        </mxCell>
        <mxCell id="LGZqytboxsc6lPR2mBcq-93" value="return true" style="edgeLabel;html=1;align=center;verticalAlign=middle;resizable=0;points=[];" vertex="1" connectable="0" parent="LGZqytboxsc6lPR2mBcq-92">
          <mxGeometry x="0.1439" y="-2" relative="1" as="geometry">
            <mxPoint as="offset" />
          </mxGeometry>
        </mxCell>
        <mxCell id="LGZqytboxsc6lPR2mBcq-95" value="grade.active == true" style="shape=hexagon;perimeter=hexagonPerimeter2;whiteSpace=wrap;html=1;fixedSize=1;" vertex="1" parent="1">
          <mxGeometry x="-231.25" y="530" width="210" height="30" as="geometry" />
        </mxCell>
      </root>
    </mxGraphModel>
  </diagram>
</mxfile>
